<svg width="6309" height="1645" viewBox="0 0 6309 1645" fill="none" xmlns="http://www.w3.org/2000/svg">
<path d="M1637.99 856.466H1637.8L1637.75 856.659L1487.75 1497.52L1487.68 1497.83H1487.99H1882.1H1882.3L1882.34 1497.63L1886.31 1479.29L1886.37 1478.99H1886.06H1509.85L1579.12 1184.68H1917.13H1917.33L1917.37 1184.49L1921.34 1166.14L1921.41 1165.84H1921.1H1583.21L1651.68 875.31H2023.25H2023.44L2023.49 875.123L2028.25 856.779L2028.34 856.466H2028.01H1637.99Z" fill="#4E4E4E" stroke="#4E4E4E" stroke-width="0.5"/>
<path d="M1995.85 1432.3L1995.71 1432.46L1995.85 1432.62C2038.2 1480.29 2102.1 1505.95 2160.33 1505.95C2255.46 1505.95 2308.99 1439.89 2308.99 1381.2C2308.99 1347.23 2296.8 1323.36 2276.51 1304.32C2256.24 1285.3 2227.89 1271.1 2195.58 1256.47C2166.43 1243.19 2140.13 1231.07 2121.11 1215.31C2102.11 1199.56 2090.39 1180.17 2090.39 1152.35C2090.39 1102.16 2134.14 1050.09 2215.43 1050.09C2255.28 1050.09 2306.23 1065.55 2346.09 1104.92L2346.29 1105.11L2346.46 1104.89L2357.57 1091.1L2357.71 1090.93L2357.55 1090.77C2315.21 1048.7 2255.39 1031.24 2216.22 1031.24C2125.17 1031.24 2072.43 1091.83 2072.43 1154.18C2072.43 1184.96 2085.23 1207.7 2105.71 1226.16C2126.18 1244.61 2154.33 1258.81 2185.05 1272.53C2218.56 1287.63 2245.06 1300.43 2263.18 1316.87C2281.28 1333.29 2291.03 1353.36 2291.03 1383.02C2291.03 1430.48 2246.49 1487.11 2161.23 1487.11C2102.24 1487.11 2050.49 1463.33 2007.45 1418.49L2007.25 1418.29L2007.07 1418.51L1995.85 1432.3Z" fill="#4E4E4E" stroke="#4E4E4E" stroke-width="0.5"/>
<path d="M2519.39 1039.57H2519.19L2519.14 1039.77L2377.99 1643.94L2377.92 1644.25H2378.23H2395.01H2395.21L2395.26 1644.06L2465.91 1343.32C2476.05 1421.88 2532.67 1508.82 2641.5 1508.82C2709.4 1508.82 2765.7 1471.68 2805.02 1417.51C2844.34 1363.35 2866.69 1292.13 2866.69 1223.91C2866.69 1114.8 2798.82 1028.64 2701.36 1028.64C2654.58 1028.64 2611.64 1048.12 2577.81 1073.66C2545.11 1098.35 2520.89 1128.71 2509.93 1152.67L2536.41 1039.88L2536.48 1039.57H2536.17H2519.39ZM2700.45 1047.36C2787.23 1047.36 2848.61 1125 2848.61 1226.51C2848.61 1288.26 2828.08 1354.1 2791.8 1404.51C2755.53 1454.91 2703.53 1489.84 2640.59 1489.84C2591.23 1489.84 2550.63 1469.74 2522.36 1435.94C2494.09 1402.14 2478.14 1354.61 2478.14 1299.76C2478.14 1248.56 2500.85 1185.45 2540.01 1135.14C2579.16 1084.83 2634.74 1047.36 2700.45 1047.36Z" fill="#4E4E4E" stroke="#4E4E4E" stroke-width="0.5"/>
<path d="M2978.19 1274.64H3335.48H3335.67L3335.72 1274.45C3341.28 1253.35 3343.67 1231.35 3344.46 1208.44V1208.43C3344.46 1164.03 3333.68 1119.12 3308.81 1085.31C3283.93 1051.48 3244.97 1028.77 3188.66 1028.77C3125.58 1028.77 3067.89 1063.6 3025.97 1117.17C2984.06 1170.75 2957.91 1243.11 2957.91 1318.23C2957.91 1375.92 2975.27 1423.56 3006.23 1456.8C3037.2 1490.03 3081.74 1508.82 3136.05 1508.82C3184.75 1508.82 3243.89 1488.62 3294.16 1439.14L3294.32 1438.99L3294.18 1438.81L3283.75 1425.02L3283.58 1424.8L3283.38 1424.99C3235.47 1471.66 3179.75 1489.97 3135.94 1489.97C3086.17 1489.97 3046.16 1473.05 3018.59 1442.89C2991.02 1412.73 2975.87 1369.31 2975.87 1316.28C2975.87 1302.66 2976.64 1288.15 2978.19 1274.64ZM3321.57 1256.29L3321.54 1256.45H2981.48C3003.89 1142.29 3088.34 1047.36 3188.54 1047.36C3238.3 1047.36 3272.71 1067.23 3294.7 1097.13C3316.7 1127.05 3326.27 1167.03 3326.27 1207.26C3326.27 1223.64 3323.93 1239.89 3321.57 1256.29Z" fill="#4E4E4E" stroke="#4E4E4E" stroke-width="0.5"/>
<path d="M3825.3 1136.95L3825.48 1136.83L3825.39 1136.63C3800.65 1082.59 3749.56 1028.51 3668.02 1028.51C3605.29 1028.51 3546.38 1061.27 3503.16 1112.92C3459.94 1164.56 3432.4 1235.1 3432.4 1310.68C3432.4 1436.23 3521.85 1508.68 3608.16 1508.55C3672.08 1508.55 3723.17 1474.67 3763.89 1432.5L3764.06 1432.32L3763.89 1432.15L3752.67 1420.18L3752.49 1419.99L3752.31 1420.18C3714.12 1459.57 3668.72 1489.71 3608.95 1489.71C3529.39 1489.71 3450.47 1424.91 3450.47 1309.64C3450.47 1239.25 3475.79 1173.64 3515.55 1125.63C3555.31 1077.62 3609.5 1047.22 3667.23 1047.22C3742.83 1047.22 3787.43 1095.65 3810.54 1145.95L3810.66 1146.21L3810.9 1146.06L3825.3 1136.95Z" fill="#4E4E4E" stroke="#4E4E4E" stroke-width="0.5"/>
<path d="M3974.25 1039.51H3974.06L3974.01 1039.71L3867.09 1497.39L3867.02 1497.7H3867.34H3884.12H3884.32L3884.36 1497.51L3991.28 1039.82L3991.35 1039.51H3991.03H3974.25ZM4013.37 856.466H4013.17L4013.13 856.656L4000.31 908.826L4000.24 909.136H4000.56H4025.27H4025.47L4025.52 908.945L4038.33 856.776L4038.4 856.466H4038.09H4013.37Z" fill="#4E4E4E" stroke="#4E4E4E" stroke-width="0.5"/>
<path d="M4362.86 1390.49L4337.84 1497.31L4337.76 1497.62H4338.08H4354.86H4355.06L4355.1 1497.43L4416.55 1233.85L4416.55 1233.84C4421.32 1211.97 4423.7 1191.79 4423.7 1174.34C4423.7 1126.2 4407.13 1090.64 4379.14 1067.12C4351.16 1043.61 4311.82 1032.15 4266.31 1032.15C4220.02 1032.15 4176.9 1043.21 4148.19 1055.06L4147.99 1055.15L4148.04 1055.36L4152.81 1073.7L4152.88 1073.98L4153.14 1073.87C4180.22 1062.82 4221.68 1050.99 4264.72 1050.99C4306.52 1050.99 4342.15 1061.52 4367.31 1082.3C4392.48 1103.08 4407.22 1134.14 4407.22 1175.25C4407.22 1192.53 4404.84 1210.85 4400.08 1231L4400.08 1231L4395.38 1251.8C4344.27 1233.51 4283.81 1223.52 4226.4 1223.52C4172.9 1223.52 4127.97 1237.94 4096.41 1265.1C4064.84 1292.26 4046.68 1332.15 4046.68 1383.01C4046.68 1463.71 4111.33 1508.68 4174.59 1508.68C4267.9 1508.68 4329.92 1455.65 4362.86 1390.49ZM4381.71 1309.71L4381.71 1309.71C4358.6 1408.51 4283.62 1490.74 4177.76 1490.61C4151.12 1490.61 4122.86 1481.72 4101.27 1463.47C4079.68 1445.22 4064.75 1417.61 4064.75 1380.15C4064.75 1337.22 4080.28 1302.75 4107.85 1279.01C4135.41 1255.27 4175.03 1242.24 4223.23 1242.24C4280.49 1242.24 4341.03 1252.22 4391.19 1269.6L4381.71 1309.71Z" fill="#4E4E4E" stroke="#4E4E4E" stroke-width="0.5"/>
<path d="M4666.65 829.07H4666.45L4666.41 829.263L4510.06 1497.45L4509.99 1497.75H4510.3H4527.08H4527.28L4527.33 1497.56L4683.67 829.377L4683.75 829.07H4683.43H4666.65Z" fill="#4E4E4E" stroke="#4E4E4E" stroke-width="0.5"/>
<path d="M4799.87 1039.51H4799.67L4799.63 1039.71L4692.71 1497.39L4692.64 1497.7H4692.95H4709.73H4709.93L4709.98 1497.51L4816.89 1039.82L4816.96 1039.51H4816.65H4799.87ZM4838.99 856.466H4838.79L4838.74 856.656L4825.93 908.826L4825.85 909.136H4826.17H4850.89H4851.09L4851.13 908.945L4863.94 856.776L4864.02 856.466H4863.7H4838.99Z" fill="#4E4E4E" stroke="#4E4E4E" stroke-width="0.5"/>
<path d="M4828.37 1486.27L4828.32 1486.32L4828.31 1486.39L4825.93 1497.32L4825.86 1497.62H4826.17H5156.44H5156.64L5156.69 1497.43L5160.65 1480.9L5160.73 1480.6H5160.41H4856.23L5259.46 1050.78L5259.51 1050.73L5259.52 1050.66L5261.9 1039.74L5261.97 1039.43H5261.66H4942.61H4942.41L4942.37 1039.62L4938.4 1056.15L4938.33 1056.45H4938.64H5231.6L4828.37 1486.27Z" fill="#4E4E4E" stroke="#4E4E4E" stroke-width="0.5"/>
<path d="M5584.85 1390.49L5559.82 1497.31L5559.75 1497.62H5560.07H5576.85H5577.05L5577.09 1497.43L5638.54 1233.85L5638.54 1233.84C5643.31 1211.97 5645.69 1191.79 5645.69 1174.34C5645.69 1126.2 5629.11 1090.64 5601.13 1067.12C5573.15 1043.61 5533.8 1032.15 5488.3 1032.15C5442 1032.15 5398.89 1043.21 5370.18 1055.06L5369.98 1055.15L5370.03 1055.36L5374.79 1073.7L5374.87 1073.98L5375.13 1073.87C5402.21 1062.82 5443.67 1050.99 5486.71 1050.99C5528.51 1050.99 5564.13 1061.52 5589.3 1082.3C5614.46 1103.08 5629.21 1134.14 5629.21 1175.25C5629.21 1192.53 5626.83 1210.85 5622.07 1231L5622.07 1231L5617.37 1251.8C5566.26 1233.51 5505.8 1223.52 5448.39 1223.52C5394.89 1223.52 5349.96 1237.94 5318.4 1265.1C5286.83 1292.26 5268.66 1332.15 5268.66 1383.01C5268.66 1463.71 5333.43 1508.68 5396.58 1508.68C5489.89 1508.68 5551.91 1455.65 5584.85 1390.49ZM5603.7 1309.71L5603.7 1309.71C5580.59 1408.51 5505.61 1490.74 5399.75 1490.61C5373.1 1490.61 5344.85 1481.72 5323.26 1463.47C5301.67 1445.22 5286.74 1417.61 5286.74 1380.15C5286.74 1337.22 5302.27 1302.75 5329.83 1279.01C5357.4 1255.27 5397.02 1242.24 5445.22 1242.24C5502.48 1242.24 5563.02 1252.22 5613.17 1269.6L5603.7 1309.71Z" fill="#4E4E4E" stroke="#4E4E4E" stroke-width="0.5"/>
<path d="M6053.82 1013.81H5941.67L5972.66 881.417L5972.73 881.11H5972.42H5875.93H5875.74L5875.69 881.303L5844.67 1013.81H5791.47H5791.27L5791.22 1014L5768.89 1109.23L5768.82 1109.54H5769.13H5822.22L5765.6 1354.59C5765.6 1354.6 5765.6 1354.6 5765.6 1354.6C5760.84 1372.96 5758.45 1392.11 5758.45 1410.47C5758.45 1439.41 5767.83 1463.29 5785.73 1479.91C5803.63 1496.54 5830.03 1505.89 5864.03 1505.82C5893.65 1505.82 5920 1500.22 5943.17 1488.36L5943.27 1488.31L5943.3 1488.2L5965.63 1392.05L5965.75 1391.54L5965.28 1391.77C5944.56 1401.91 5923.05 1407.36 5903.94 1407.36C5890.03 1407.36 5879.52 1404.18 5872.5 1397.96C5865.48 1391.74 5861.9 1382.45 5861.9 1370.14C5861.9 1362.88 5863.48 1351.84 5865.07 1342.74C5865.07 1342.74 5865.07 1342.73 5865.07 1342.73L5919.22 1109.54H6031.49H6031.69L6031.73 1109.35L6054.07 1014.12L6054.14 1013.81H6053.82Z" fill="#4E4E4E" stroke="#4E4E4E" stroke-width="0.5"/>
<path d="M6164.71 1013.88H6164.51L6164.46 1014.07L6051.2 1497.39L6051.13 1497.69H6051.44H6147.93H6148.12L6148.17 1497.5L6261.43 1014.18L6261.51 1013.88H6261.19H6164.71ZM6202.91 834.472H6202.72L6202.67 834.665L6177.96 939.914L6177.88 940.221H6178.2H6281.94H6282.14L6282.18 940.03L6307.69 834.781L6307.77 834.472H6307.45H6202.91Z" fill="#4E4E4E" stroke="#4E4E4E" stroke-width="0.5"/>
<path d="M1261 624.504C1261 624.504 1211.12 624.504 1068.69 624.504C926.26 624.504 679.082 976.733 789.433 976.733C998.779 976.733 1112.35 976.733 1167.22 976.733C1287.94 976.733 1381.56 624.504 1261 624.504Z" fill="url(#paint0_linear)"/>
<path d="M1102.46 1220.03C1102.46 1220.03 764.572 1220.03 614.853 1220.03C526.372 1220.03 348.489 1572.26 458.841 1572.26C668.187 1572.26 953.812 1572.26 1008.68 1572.26C1129.32 1572.26 1222.94 1220.03 1102.46 1220.03Z" fill="url(#paint1_linear)"/>
<path d="M1417.16 0H311.42C308.888 0 306.355 0.0880465 303.823 0.264161C228.695 6.164 192.32 109.543 239.362 176.995C245.117 185.272 251.179 194.078 257.242 202.972C293.847 256.423 305.435 327.045 288.091 392.031L4.07743 1458.58C-32.7577 1596.92 189.865 1625.18 274.202 1452.33C361.531 1273.57 522.532 861.024 756.741 624.502C990.951 387.892 1204.75 396.081 1366.52 298.602C1493.44 222.168 1537.72 0 1417.16 0Z" fill="url(#paint2_linear)"/>
<defs>
<linearGradient id="paint0_linear" x1="1039.48" y1="-13.0756" x2="1039.48" y2="1600.76" gradientUnits="userSpaceOnUse">
<stop stop-color="#4DFF18"/>
<stop offset="0.4946" stop-color="#00FFA2"/>
<stop offset="1" stop-color="#00B6FF"/>
</linearGradient>
<linearGradient id="paint1_linear" x1="791.152" y1="-13.0879" x2="791.152" y2="1600.76" gradientUnits="userSpaceOnUse">
<stop stop-color="#4DFF18"/>
<stop offset="0.4946" stop-color="#00FFA2"/>
<stop offset="1" stop-color="#00B6FF"/>
</linearGradient>
<linearGradient id="paint2_linear" x1="744.027" y1="-13.0818" x2="744.027" y2="1600.76" gradientUnits="userSpaceOnUse">
<stop stop-color="#4DFF18"/>
<stop offset="0.4946" stop-color="#00FFA2"/>
<stop offset="1" stop-color="#00B6FF"/>
</linearGradient>
</defs>
</svg>
